<svg xmlns="http://www.w3.org/2000/svg" xmlns:xlink="http://www.w3.org/1999/xlink" width="51" height="52" viewBox="0 0 51 52"><defs><style>.a,.c,.e{fill:none;}.b{clip-path:url(#a);}.c,.e{stroke:#000;stroke-miterlimit:10;}.d{fill:#ffcb05;}.e{stroke-linecap:round;}</style><clipPath id="a"><rect class="a" width="51" height="52"/></clipPath></defs><g class="b"><g transform="translate(10.5 24.252)"><path class="c" d="M143.246,48.748h5a1.923,1.923,0,0,0,2-2v-5a1.923,1.923,0,0,0-2-2h-5a1.923,1.923,0,0,0-2,2v5A1.923,1.923,0,0,0,143.246,48.748Z" transform="translate(-141.246 -39.5)"/><path class="c" d="M143.246,47.748h5a1.923,1.923,0,0,0,2-2v-5a1.923,1.923,0,0,0-2-2h-5a1.923,1.923,0,0,0-2,2v5A1.923,1.923,0,0,0,143.246,47.748Z" transform="translate(-129.246 -38.5)"/><path class="c" d="M143.246,47.748h5a1.923,1.923,0,0,0,2-2v-5a1.923,1.923,0,0,0-2-2h-5a1.923,1.923,0,0,0-2,2v5A1.923,1.923,0,0,0,143.246,47.748Z" transform="translate(-117.246 -38.5)"/></g><g transform="translate(10.5 37)"><path class="c" d="M143.246,47.748h5a1.923,1.923,0,0,0,2-2v-5a1.923,1.923,0,0,0-2-2h-5a1.923,1.923,0,0,0-2,2v5A1.923,1.923,0,0,0,143.246,47.748Z" transform="translate(-141.246 -39.248)"/><path class="c" d="M143.246,47.748h5a1.923,1.923,0,0,0,2-2v-5a1.923,1.923,0,0,0-2-2h-5a1.923,1.923,0,0,0-2,2v5A1.923,1.923,0,0,0,143.246,47.748Z" transform="translate(-129.246 -39.248)"/><path class="c" d="M143.246,47.748h5a1.923,1.923,0,0,0,2-2v-5a1.923,1.923,0,0,0-2-2h-5a1.923,1.923,0,0,0-2,2v5A1.923,1.923,0,0,0,143.246,47.748Z" transform="translate(-117.246 -39.248)"/></g><rect class="d" width="46" height="15" rx="5" transform="translate(0 8)"/><path class="c" d="M-717,66.5h37c2.936,0,5-3.064,5-6v-35a4.793,4.793,0,0,0-5-5h-37a4.793,4.793,0,0,0-5,5v35C-722,63.388-719.991,66.5-717,66.5Z" transform="translate(725.5 -15)"/><line class="c" x2="47" transform="translate(3.5 19.5)"/><g transform="translate(725.5 -15)"><path class="e" d="M-704,20.5v-2a3.144,3.144,0,0,0-3-3,3.144,3.144,0,0,0-3,3v5c0,1.344,1.655,2.793,3,3"/><path class="e" d="M-704,20.5v-2a3.144,3.144,0,0,0-3-3,3.144,3.144,0,0,0-3,3v5c0,1.344,1.655,2.793,3,3" transform="translate(17)"/></g></g></svg>