<svg xmlns="http://www.w3.org/2000/svg" xmlns:xlink="http://www.w3.org/1999/xlink" width="54" height="53" viewBox="0 0 54 53"><defs><style>.a,.d,.e{fill:none;}.b{clip-path:url(#a);}.c{fill:#ffcb05;}.d,.e{stroke:#000;stroke-linecap:round;}.d{stroke-linejoin:round;}</style><clipPath id="a"><rect class="a" width="54" height="53"/></clipPath></defs><g class="b"><circle class="c" cx="13" cy="13" r="13" transform="translate(28)"/><line class="d" x2="6" transform="translate(15.5 28.5)"/><g transform="translate(-17.38 -9.542)"><line class="d" x2="2" transform="translate(20.88 38.042)"/><line class="d" x2="2" transform="translate(60.88 38.042)"/><line class="d" y1="2" transform="translate(41.88 57.042)"/><line class="d" y1="2" transform="translate(41.88 17.042)"/></g><g transform="translate(-17.38 -9.542)"><path class="e" d="M.5,0l2,2" transform="translate(26.38 23.042)"/><line class="d" x2="2" y2="2" transform="translate(54.88 51.042)"/><line class="d" y1="2" x2="2" transform="translate(26.88 51.042)"/><path class="e" d="M.5,2l2-2" transform="translate(54.38 23.042)"/></g><line class="d" y2="10" transform="translate(24.5 15.5)"/><circle class="d" cx="24.5" cy="24.5" r="24.5" transform="translate(0.5 3.5)"/><circle class="d" cx="3" cy="3" r="3" transform="translate(21.5 25.5)"/></g></svg>